<?xml version="1.0" encoding="utf-8"?>
<!-- Generator: Adobe Illustrator 23.1.1, SVG Export Plug-In . SVG Version: 6.00 Build 0)  -->
<svg version="1.1" id="Слой_1" xmlns="http://www.w3.org/2000/svg" xmlns:xlink="http://www.w3.org/1999/xlink" x="0px" y="0px"
	 viewBox="0 0 200 200" style="enable-background:new 0 0 200 200;" xml:space="preserve">
<style type="text/css">
	.st0{fill:#FFFFFF;}
</style>
<path class="st0" d="M80.1,175.2c29.3,0,55.6-16,69.4-41.8L88,96.4l61.5-36.9c-13.7-25.8-40.1-41.8-69.4-41.8
	C36.7,17.7,1.4,53,1.4,96.4S36.7,175.2,80.1,175.2z M76.2,49.2C82.7,49.2,88,54.5,88,61s-5.3,11.8-11.8,11.8
	c-6.5,0-11.8-5.3-11.8-11.8C64.4,54.5,69.7,49.2,76.2,49.2z"/>
<path class="st0" d="M140.1,94.9c-0.2-0.3-0.6-0.8-0.6-0.8c-6.9-7.4-8.6-11.7-8.9-12.8c-0.7-2.7-0.4-2.7-0.7-2.7c-0.3,0,0,0-0.7,2.7
	c-0.4,1.1-2.1,5.4-8.9,12.8c0,0-0.4,0.5-0.6,0.8c-1.7,2.4-2.5,5.3-2.2,8.2c0.3,2.9,1.6,5.4,3.6,7.4c2,1.9,4.6,3.2,7.5,3.6
	c0.5,0.1,1,0.1,1.4,0.1c3.1,0,6-1.1,8.3-3.1c2.7-2.3,4.2-5.6,4.2-9.1C142.4,99.4,141.6,97,140.1,94.9z"/>
<path class="st0" d="M167.5,94.9c-0.2-0.3-0.6-0.8-0.6-0.8c-6.9-7.4-8.6-11.7-8.9-12.8c-0.7-2.7-0.4-2.7-0.7-2.7c-0.3,0,0,0-0.7,2.7
	c-0.4,1.1-2.1,5.4-8.9,12.8c0,0-0.4,0.5-0.6,0.8c-1.7,2.4-2.5,5.3-2.2,8.2c0.3,2.9,1.6,5.4,3.6,7.4c2,1.9,4.6,3.2,7.5,3.6
	c0.5,0.1,1,0.1,1.4,0.1c3.1,0,6-1.1,8.3-3.1c2.7-2.3,4.2-5.6,4.2-9.1C169.8,99.4,169,97,167.5,94.9z"/>
<path class="st0" d="M195.2,94.9c-0.2-0.3-0.6-0.8-0.6-0.8c-6.9-7.4-8.6-11.7-8.9-12.8c-0.7-2.7-0.4-2.7-0.7-2.7c-0.3,0,0,0-0.7,2.7
	c-0.4,1.1-2.1,5.4-8.9,12.8c0,0-0.4,0.5-0.6,0.8c-1.7,2.4-2.5,5.3-2.2,8.2c0.3,2.9,1.6,5.4,3.6,7.4c2,1.9,4.6,3.2,7.5,3.6
	c0.5,0.1,1,0.1,1.4,0.1c3.1,0,6-1.1,8.3-3.1c2.7-2.3,4.2-5.6,4.2-9.1C197.5,99.4,196.7,97,195.2,94.9z"/>
</svg>
